<svg width="22" height="15" viewBox="0 0 22 15" fill="none" xmlns="http://www.w3.org/2000/svg">
<path d="M1 6.36397C0.447715 6.36397 0 6.81168 0 7.36397C0 7.91625 0.447715 8.36397 1 8.36397V6.36397ZM21.7071 8.07107C22.0976 7.68055 22.0976 7.04739 21.7071 6.65686L15.3431 0.2929C14.9526 -0.0976243 14.3195 -0.0976243 13.9289 0.2929C13.5384 0.683424 13.5384 1.31659 13.9289 1.70711L19.5858 7.36397L13.9289 13.0208C13.5384 13.4113 13.5384 14.0445 13.9289 14.435C14.3195 14.8256 14.9526 14.8256 15.3431 14.435L21.7071 8.07107ZM1 7.36397V8.36397H21V7.36397V6.36397H1V7.36397Z" fill="#396039"/>
</svg>
